<?xml version="1.0" standalone="no"?>
<!DOCTYPE svg PUBLIC "-//W3C//DTD SVG 20010904//EN"
 "http://www.w3.org/TR/2001/REC-SVG-20010904/DTD/svg10.dtd">
<svg version="1.0" xmlns="http://www.w3.org/2000/svg"
 width="500.000000pt" height="500.000000pt" viewBox="0 0 500.000000 500.000000"
 preserveAspectRatio="xMidYMid meet">

<g transform="translate(0.000000,500.000000) scale(0.100000,-0.100000)"
fill="#000000" stroke="none">
<path d="M249 2727 c-78 -33 -127 -73 -170 -140 -46 -72 -63 -139 -57 -231 6
-73 33 -160 49 -150 5 3 6 -2 3 -10 -9 -23 95 -122 153 -147 105 -45 215 -44
306 2 35 18 37 22 24 37 -13 15 -12 19 4 36 17 17 19 18 19 3 0 -9 5 -17 11
-17 8 0 7 -6 -2 -17 -10 -13 -7 -12 13 3 102 79 155 227 128 359 -16 78 -41
127 -96 185 -67 72 -141 104 -244 108 -71 2 -94 -1 -141 -21z m61 -37 c0 -5
-7 -10 -15 -10 -8 0 -15 5 -15 10 0 6 7 10 15 10 8 0 15 -4 15 -10z m213 -23
c26 -11 37 -22 37 -37 0 -27 -77 -61 -144 -63 -94 -4 -84 -67 11 -67 54 0 83
-26 83 -73 0 -48 -17 -65 -90 -91 -48 -17 -66 -29 -68 -44 -5 -34 37 -40 62
-10 17 20 71 48 92 48 2 0 4 -17 4 -38 0 -63 -50 -102 -131 -102 -46 0 -94 22
-109 49 -5 11 -10 37 -10 59 0 47 24 72 96 98 55 20 65 38 24 40 -14 1 -33 2
-43 3 -33 2 -77 56 -77 93 1 50 19 73 90 118 71 44 101 47 173 17z m-272 -36
c-14 -15 -17 -15 -28 -1 -17 22 3 43 26 28 17 -10 17 -12 2 -27z m-75 -38
c-10 -10 -19 5 -10 18 6 11 8 11 12 0 2 -7 1 -15 -2 -18z m475 -36 c-18 -18
-38 8 -21 28 12 15 14 15 23 0 6 -11 5 -21 -2 -28z m-531 -27 c-13 -13 -17
-13 -30 0 -13 13 -13 17 0 30 13 13 17 13 30 0 13 -13 13 -17 0 -30z m400 2
c0 -5 -7 -9 -15 -9 -8 0 -12 4 -9 9 3 4 9 8 15 8 5 0 9 -4 9 -8z m30 -22 c0
-5 -5 -10 -11 -10 -5 0 -7 5 -4 10 3 6 8 10 11 10 2 0 4 -4 4 -10z m-470 -70
c0 -5 -2 -10 -4 -10 -3 0 -8 5 -11 10 -3 6 -1 10 4 10 6 0 11 -4 11 -10z m513
-15 c-20 -27 -40 -33 -40 -11 0 8 6 12 12 10 7 -3 18 2 25 11 20 24 23 17 3
-10z m-378 3 c5 4 5 2 1 -5 -3 -6 -2 -14 4 -18 6 -4 8 -10 5 -15 -3 -5 -1 -11
4 -14 5 -4 8 5 7 19 -3 25 19 54 31 41 3 -3 1 -6 -6 -6 -7 0 -9 -5 -6 -10 4
-6 16 -8 28 -5 19 5 20 5 4 -5 -9 -6 -22 -8 -27 -5 -6 3 -10 -2 -10 -12 0 -10
-7 -27 -15 -37 -35 -47 -7 -141 54 -178 46 -29 141 -32 186 -4 55 33 70 64 69
139 0 41 4 67 10 67 6 0 22 9 36 20 35 27 46 25 15 -4 -23 -22 -24 -24 -8 -37
15 -12 16 -12 10 4 -5 14 -3 18 11 15 9 -2 16 -10 14 -16 -1 -7 2 -12 8 -12
29 0 -4 -101 -51 -154 -109 -124 -317 -117 -416 12 -39 51 -61 121 -42 133 15
9 21 39 8 39 -5 0 -9 7 -9 15 0 8 5 15 11 15 5 0 8 -4 4 -9 -3 -5 7 -19 21
-30 l27 -21 12 22 c17 33 5 45 -17 17 l-19 -24 11 23 c6 13 9 31 6 39 -5 12
-4 13 7 5 8 -7 18 -8 22 -4z m495 -13 c0 -8 -4 -15 -9 -15 -13 0 -22 16 -14
24 11 11 23 6 23 -9z m0 -59 c0 -3 -4 -8 -10 -11 -5 -3 -10 -1 -10 4 0 6 5 11
10 11 6 0 10 -2 10 -4z m-640 -26 c0 -5 -2 -10 -4 -10 -3 0 -8 5 -11 10 -3 6
-1 10 4 10 6 0 11 -4 11 -10z m18 -41 c-2 -6 -8 -10 -13 -10 -5 0 -11 4 -13
10 -2 6 4 11 13 11 9 0 15 -5 13 -11z m53 -66 c32 -73 63 -100 128 -114 81
-16 92 -25 44 -34 -107 -18 -203 58 -203 159 0 20 2 36 5 36 2 0 14 -21 26
-47z m545 6 c8 -14 -11 -33 -25 -25 -11 7 -4 36 9 36 5 0 12 -5 16 -11z m-222
-160 c-3 -5 -10 -7 -15 -3 -5 3 -7 10 -3 15 3 5 10 7 15 3 5 -3 7 -10 3 -15z
m-60 -30 c-3 -5 -10 -7 -15 -3 -5 3 -7 10 -3 15 3 5 10 7 15 3 5 -3 7 -10 3
-15z"/>
<path d="M462 2636 c1 -10 8 -17 13 -17 15 1 12 24 -3 29 -9 3 -13 -2 -10 -12z"/>
</g>
</svg>
