<?xml version="1.0" standalone="no"?>
<!DOCTYPE svg PUBLIC "-//W3C//DTD SVG 20010904//EN"
 "http://www.w3.org/TR/2001/REC-SVG-20010904/DTD/svg10.dtd">
<svg version="1.0" xmlns="http://www.w3.org/2000/svg"
 width="1080.000000pt" height="1080.000000pt" viewBox="0 0 1080.000000 1080.000000"
 preserveAspectRatio="xMidYMid meet">

<g transform="translate(0.000000,1080.000000) scale(0.100000,-0.100000)"
fill="#000000" stroke="none">
<path d="M1854 6383 c-9 -69 -48 -111 -116 -123 -79 -15 -80 -26 -2 -39 66
-10 106 -49 119 -116 6 -27 15 -50 20 -50 6 0 14 26 19 58 5 31 12 57 16 57 4
0 19 11 33 24 16 15 43 26 76 30 28 4 51 10 51 15 0 5 -24 13 -54 19 -70 14
-108 50 -121 116 -13 67 -32 71 -41 9z m44 -115 c30 -30 -4 -77 -41 -57 -20
11 -23 55 -4 62 21 9 32 8 45 -5z"/>
<path d="M1050 6276 c-7 -23 -19 -36 -35 -40 -33 -8 -31 -22 4 -34 22 -8 30
-18 33 -38 5 -40 25 -40 32 0 5 28 12 36 36 41 17 4 30 10 30 15 0 5 -13 11
-30 15 -24 5 -31 13 -36 41 -8 43 -19 43 -34 0z"/>
<path d="M1316 6228 c-76 -83 -87 -103 -64 -126 22 -22 48 -13 88 31 l40 42 0
-56 c0 -62 15 -85 50 -74 17 5 20 15 20 63 l1 57 37 -41 c20 -22 56 -61 78
-87 23 -26 46 -47 52 -47 16 0 43 31 40 46 -2 8 -52 72 -111 144 -83 99 -114
130 -132 130 -17 0 -46 -24 -99 -82z"/>
<path d="M1128 6118 c-29 -23 -230 -252 -275 -312 -60 -81 -114 -196 -116
-248 -2 -41 -1 -43 27 -43 27 0 31 6 57 69 15 38 43 94 62 124 41 65 247 301
264 301 6 1 42 -37 79 -84 37 -46 74 -87 81 -90 21 -7 53 13 53 34 0 16 -169
238 -193 253 -16 10 -21 10 -39 -4z"/>
<path d="M1970 6020 c-19 -11 -55 -31 -80 -44 -87 -46 -120 -105 -120 -213 0
-82 -23 -127 -76 -149 -53 -22 -97 -11 -239 62 -69 36 -153 72 -188 80 -159
41 -320 -31 -431 -193 -62 -92 -88 -168 -94 -277 -7 -141 18 -226 100 -334 42
-54 137 -132 196 -160 30 -15 34 -15 49 1 16 16 15 18 -9 44 -59 63 -72 125
-38 180 30 50 78 60 187 39 70 -14 130 -17 298 -14 186 3 214 5 242 22 49 30
76 74 81 131 4 44 1 55 -23 83 -26 31 -31 33 -83 30 -39 -2 -58 -8 -66 -20
-15 -25 3 -50 42 -60 38 -10 43 -39 10 -62 -32 -23 -388 -23 -503 -1 -47 9
-97 13 -120 9 -84 -14 -151 -67 -175 -139 -13 -40 -26 -37 -47 12 -13 33 -13
37 8 59 18 20 22 34 20 87 -2 70 18 111 72 151 28 21 40 21 570 26 298 3 548
9 555 13 17 11 15 42 -4 61 -14 14 -76 16 -538 16 -599 0 -595 0 -665 -75 -30
-32 -41 -54 -42 -77 -1 -18 -5 -44 -10 -58 -5 -17 -6 -7 -2 30 24 229 185 396
361 375 38 -5 96 -28 195 -78 135 -67 146 -71 223 -75 75 -4 86 -2 133 23 77
42 103 89 112 201 3 50 12 100 18 112 18 34 47 45 83 33 48 -17 88 -13 145 13
88 41 79 95 -22 134 -70 27 -81 27 -125 2z m113 -52 c7 -21 -4 -38 -23 -38
-23 0 -34 16 -26 35 7 18 43 20 49 3z"/>
<path d="M2560 6011 c-26 -49 -4 -111 38 -111 16 0 33 5 40 12 16 16 16 90 0
106 -19 19 -66 15 -78 -7z"/>
<path d="M1699 5988 c-48 -52 -100 -167 -102 -224 -2 -48 -1 -49 27 -49 26 0
30 5 55 76 15 42 44 99 64 128 40 55 44 70 25 89 -19 19 -37 14 -69 -20z"/>
<path d="M4793 5953 c-9 -3 -13 -31 -13 -88 l0 -84 -62 -3 c-63 -3 -63 -3 -63
-33 0 -30 0 -30 63 -33 l62 -3 0 -127 c0 -110 3 -131 20 -160 42 -68 152 -80
264 -29 59 27 72 52 40 77 -13 11 -23 10 -61 -9 -26 -12 -68 -25 -94 -28 -42
-5 -50 -2 -73 20 -25 25 -26 31 -26 142 l0 115 109 0 c98 0 110 2 116 19 14
45 0 51 -116 51 l-109 0 0 78 c0 92 -13 113 -57 95z"/>
<path d="M8952 5948 c-7 -7 -12 -43 -12 -90 l0 -77 -62 -3 c-63 -3 -63 -3 -63
-33 0 -30 0 -30 62 -33 l61 -3 4 -129 c3 -111 6 -132 24 -157 50 -69 148 -80
257 -31 48 23 57 31 57 53 0 38 -23 41 -89 11 -61 -27 -110 -33 -141 -16 -28
15 -40 65 -40 171 l0 98 113 3 112 3 0 30 0 30 -112 3 -113 3 0 83 c0 67 -3
85 -16 90 -22 8 -28 8 -42 -6z"/>
<path d="M1514 5939 c-10 -17 13 -36 27 -22 12 12 4 33 -11 33 -5 0 -12 -5
-16 -11z"/>
<path d="M1142 5869 c2 -6 8 -10 13 -10 5 0 11 4 13 10 2 6 -4 11 -13 11 -9 0
-15 -5 -13 -11z"/>
<path d="M3645 5811 c-22 -10 -46 -26 -54 -35 -13 -16 -15 -15 -27 14 -13 30
-15 31 -71 28 -57 -3 -58 -3 -58 -33 0 -27 4 -30 33 -33 l32 -3 0 -250 0 -249
-39 0 c-42 0 -58 -20 -45 -54 5 -14 25 -16 144 -16 126 0 139 2 145 19 12 40
-3 51 -71 51 l-64 0 0 102 0 101 23 -21 c30 -28 89 -52 130 -52 122 0 207 93
207 225 0 166 -144 270 -285 206z m142 -71 c43 -26 66 -73 66 -135 0 -99 -58
-160 -146 -152 -89 8 -141 71 -134 165 4 61 28 99 78 124 45 23 96 23 136 -2z"/>
<path d="M5402 5817 c-51 -19 -98 -62 -122 -112 -19 -40 -22 -58 -18 -131 4
-73 8 -90 34 -126 44 -63 92 -83 194 -82 88 0 178 22 200 49 10 12 9 20 -4 39
l-16 25 -47 -21 c-36 -16 -69 -22 -130 -22 -77 -1 -83 1 -112 28 -26 25 -51
78 -51 108 0 4 84 9 188 10 l187 3 3 28 c9 79 -64 184 -145 206 -49 14 -119
13 -161 -2z m152 -71 c18 -7 42 -26 54 -41 41 -52 36 -55 -123 -55 -98 0 -145
4 -145 11 0 22 44 71 74 85 40 17 98 18 140 0z"/>
<path d="M6142 5804 c-32 -16 -66 -43 -83 -67 l-29 -40 0 36 c0 20 -4 47 -10
62 -9 25 -13 26 -77 23 l-68 -3 0 -30 c0 -28 3 -30 43 -33 l42 -3 0 -154 0
-154 -52 -3 c-51 -3 -53 -4 -53 -33 l0 -30 180 0 180 0 0 30 0 30 -92 3 -93 3
0 67 c0 149 113 264 226 229 39 -12 54 -2 54 39 0 54 -88 69 -168 28z"/>
<path d="M6577 5820 c-87 -27 -137 -107 -137 -217 0 -87 27 -144 89 -188 37
-26 51 -30 111 -30 61 0 73 4 114 32 l46 33 0 -100 0 -99 -67 -3 -68 -3 0 -30
0 -30 135 -3 c116 -2 136 0 147 14 20 27 -1 54 -42 54 l-35 0 0 249 0 250 33
3 c28 3 32 6 32 33 0 30 0 30 -63 33 -62 3 -62 3 -68 -27 l-6 -29 -44 31 c-47
33 -123 45 -177 27z m142 -78 c56 -28 76 -64 76 -137 0 -49 -5 -70 -21 -92
-46 -62 -135 -81 -195 -40 -44 30 -64 70 -64 132 0 62 20 102 64 132 41 28 93
30 140 5z"/>
<path d="M7782 5817 c-51 -19 -98 -62 -122 -112 -19 -40 -22 -58 -18 -131 4
-73 8 -90 34 -126 44 -63 92 -83 194 -82 88 0 178 22 200 49 10 12 9 20 -4 39
l-16 25 -47 -21 c-36 -16 -69 -22 -130 -22 -77 -1 -83 1 -112 28 -26 25 -51
78 -51 108 0 4 84 9 188 10 l187 3 3 28 c9 79 -64 184 -145 206 -49 14 -119
13 -161 -2z m152 -71 c18 -7 42 -26 54 -41 41 -52 36 -55 -123 -55 -98 0 -145
4 -145 11 0 22 44 71 74 85 40 17 98 18 140 0z"/>
<path d="M8342 5818 c-48 -16 -92 -71 -92 -114 0 -84 45 -115 201 -138 114
-17 139 -28 139 -61 0 -54 -67 -84 -158 -71 -57 8 -87 27 -114 72 -15 25 -27
34 -42 32 -20 -3 -21 -9 -21 -88 l0 -85 30 0 c23 0 31 5 33 22 l3 22 41 -21
c51 -27 134 -34 193 -18 125 35 153 192 43 240 -24 10 -81 23 -128 28 -117 15
-140 24 -140 61 0 38 20 53 78 59 70 6 127 -13 159 -53 47 -59 83 -39 83 45 0
54 -15 80 -45 80 -18 0 -26 -7 -31 -24 l-6 -24 -34 20 c-41 24 -143 33 -192
16z"/>
<path d="M1477 5805 c-8 -18 11 -31 25 -17 11 11 3 32 -12 32 -4 0 -10 -7 -13
-15z"/>
<path d="M2344 5806 c-3 -8 -4 -23 -2 -33 3 -16 16 -18 116 -21 l112 -3 0
-234 0 -234 -27 -21 c-34 -27 -89 -24 -155 9 -55 26 -64 26 -79 -1 -10 -19 -8
-25 15 -45 32 -27 115 -53 170 -53 55 0 106 27 131 70 18 32 20 55 23 284 2
136 1 259 -2 272 -6 24 -7 24 -152 24 -117 0 -146 -3 -150 -14z"/>
<path d="M2844 5806 c-12 -31 0 -51 34 -54 l32 -3 0 -137 c0 -155 11 -190 69
-229 59 -40 154 -21 211 42 l25 27 5 -39 5 -38 62 -3 c53 -3 62 0 67 16 10 32
-4 52 -35 52 l-29 0 -2 188 -3 187 -80 0 -80 0 0 -30 c0 -29 2 -30 49 -33 l49
-3 -5 -92 c-8 -146 -58 -217 -154 -217 -72 0 -78 15 -84 209 l-5 166 -63 3
c-48 2 -64 0 -68 -12z"/>
<path d="M4024 5806 c-11 -28 1 -51 29 -56 25 -4 38 -24 116 -177 l88 -173
-32 -57 c-38 -68 -65 -91 -125 -101 -48 -8 -63 -30 -39 -59 17 -20 89 -11 136
18 47 30 82 87 203 336 92 190 105 212 129 215 22 2 26 8 26 33 l0 30 -100 0
-100 0 0 -30 c0 -27 4 -30 33 -33 17 -2 32 -5 32 -7 0 -9 -120 -255 -124 -255
-3 0 -35 58 -71 129 l-65 130 43 3 c39 3 42 5 42 33 l0 30 -108 3 c-87 2 -108
0 -113 -12z"/>
<path d="M7011 5802 c-13 -24 4 -52 33 -52 23 0 23 -2 28 -143 4 -106 9 -150
22 -174 45 -88 168 -97 253 -17 19 19 37 34 39 34 1 0 4 -17 6 -37 l3 -38 60
0 60 0 0 30 c0 26 -4 30 -32 33 l-33 3 -2 187 -3 187 -80 0 -80 0 0 -30 c0
-29 2 -30 48 -33 l47 -3 0 -87 c0 -101 -19 -152 -69 -195 -41 -34 -110 -38
-141 -7 -18 18 -20 33 -20 174 0 85 -3 161 -6 170 -9 24 -120 23 -133 -2z"/>
<path d="M1937 5718 c-4 -50 2 -74 44 -185 12 -32 56 -32 64 0 11 42 -67 237
-94 237 -5 0 -11 -24 -14 -52z"/>
<path d="M1141 5556 c-9 -11 -8 -15 5 -20 20 -8 39 7 30 23 -10 15 -21 14 -35
-3z"/>
<path d="M1974 5283 c-64 -157 -114 -228 -208 -300 -141 -106 -309 -144 -480
-108 -37 8 -92 23 -121 34 -74 28 -86 11 -36 -46 30 -33 49 -45 98 -57 346
-90 690 88 804 415 20 56 21 69 10 83 -23 28 -51 19 -67 -21z"/>
<path d="M1425 4941 c-7 -12 12 -24 25 -16 11 7 4 25 -10 25 -5 0 -11 -4 -15
-9z"/>
</g>
</svg>
